<svg data-name="Layer 2" xmlns="http://www.w3.org/2000/svg" viewBox="0 0 500 499.6"><g data-name="Layer 1"><path d="M499.65 250.74c-10.36-19.88-38.68-26.48-58.69-30.53-26.28-5.32-53.57-7.78-80.37-7.19-49.67 1.1-97.67 12.44-139.39 40.2-36.46 24.26-72.31 62.92-78.98 107.76-6.53 43.89 19.86 82.17 61.79 95.67 20.93 6.74 55.3 6.92 69.07-14.08 5.79-8.83 3.68-21.19-5.77-26.43-7.43-4.12-23.58-2.94-20.26 8.88-9.05-.49-2.3-11.33 1.71-13.81 4.69-2.91 10.8-3.95 16.23-3.95 12.06.01 24.42 5.88 29.8 17.07 7.64 15.86-1.87 30.53-14.72 39.88-14.29 10.39-31.91 12.69-49.12 13.37-67.42 2.69-132.71-41.9-151.07-107.87-9.85-35.4-3.93-75.45 10.36-108.86 13.95-32.6 37.04-58.9 62.88-82.67 58.42-53.73 130.81-86.65 210.39-91.85 22-1.44 46.43-1.62 67.31 6.35 18.91 7.22 30.07 21.49 39.37 38.81 18.93 35.25 32.13 78.83 29.44 119.25z" style="stroke-width:0;fill:#00458d"/><path d="M244.43 431.21c-23.77-2.98-12.04-28.35 1.48-36.28 17.92-10.5 41.35-10.01 60.6-3.6 17.96 5.98 36.55 20.28 40.41 39.81 4.11 20.84-9.89 37.64-26.74 47.78-72.34 43.53-172.66 12.46-232.26-38.86C20.7 382.17-11.57 293.3 3.75 205.68 17.91 124.76 73.48 53.74 148.81 20.8 242.29-20.08 355.58.23 427.15 73.57c-.5.88-1.43.59-2.17.82-37.91-4.8-75.2-7.73-113.26-2.22-34.69 5.02-68.36 16.09-99.61 31.9-52.04 26.33-95.29 66.81-124.08 117.61-31.24 55.12-41.56 123.45-9.37 180.77 30.32 53.98 95.02 84.45 155.78 80.63 28.46-1.79 82.72-18.27 67.64-57.81-5.88-15.43-24.03-24.43-39.95-22.96-7.95.73-16.79 3.25-21.41 10.26-4.87 7.39-2.19 15.22 6.3 17.98-.66 1-1.78.22-2.58.67z" style="fill:#28166f;stroke-width:0"/><path d="M259.37 418.19c10.87 1.76 16.7 11.75 10.42 21.19-6.2 9.32-18.71 12.36-29.11 13.97-22.82 3.52-46.84-2.94-64.53-17.84-41.94-35.33-17.64-95.64 13.26-129.49 34.66-37.96 87.34-58.61 137.11-66.9 27.45-4.57 55.51-5.24 83.02-.8 24.63 3.97 54.11 10.62 72.91 28.18 21.47 20.05 10.03 48.53 1 72.08-5.02 13.1-11.08 25.79-18.18 37.88-3.57 6.08-7.4 12.01-11.47 17.77-1.82 2.58-8.51 14.64-11.8 14.55 10.39-70.55-83.53-89.98-135.2-85.05-30.68 2.93-64.85 12.68-87.26 34.97-18.7 18.6-27.34 52.08-5.69 72.46 8.48 7.98 20.89 11.58 32.38 10.19 9.99-1.21 26.56-12.7 13.14-22.5 0-.22 0-.43.01-.65z" style="fill:#0092dc;stroke-width:0"/><path d="M244.43 431.21c.8-.45 1.92.33 2.58-.67.83-.1 1.67-.2 2.29 1.03-1.75.23-3.32.42-4.87-.35z" style="fill:#968db8;stroke-width:0"/><path d="M424.98 74.39c.74-.22 1.68.07 2.17-.82.42.24.75.57.99.99 0 1.2-3.53-.27-3.17-.17z" style="fill:#41317f;stroke-width:0"/><path d="M259.37 418.19c0 .22 0 .43-.01.65-.54-.1-1.08-.47-.87-.94.23-.49.65-.06.88.29z" style="fill:#92d0ef;stroke-width:0"/></g></svg>